PathFileType	4	(X/Y/Z)	D:\Share\Shared_Data\Ergonomics\Sit To Stand Pertubation\S3\Perturbed.trc
DataRate	CameraRate	NumFrames	NumMarkers	Units	OrigDataRate	OrigDataStartFrame	OrigNumFrames	
100	100	19	18	m	100	6307	251
Frame#	Time	R_ASIS			R_Pelvis			V_Sacral			L_Pelvis			L_ASIS			Clavical			R_Acromium			L_Acromium			Sternum			Torso			R_Thigh_Med			R_Thigh_Lat			R_Thigh			R_Shank_Med			R_Shank_Lat			R_Shank			R_Heel			R_Toe			
		X1	Y1	Z1	X2	Y2	Z2	X3	Y3	Z3	X4	Y4	Z4	X5	Y5	Z5	X6	Y6	Z6	X7	Y7	Z7	X8	Y8	Z8	X9	Y9	Z9	X10	Y10	Z10	X11	Y11	Z11	X12	Y12	Z12	X13	Y13	Z13	X14	Y14	Z14	X15	Y15	Z15	X16	Y16	Z16	X17	Y17	Z17	X18	Y18	Z18	

6307	63.06	0.1073852	0.61179272	0.15309998	0.0069353857	0.66359723	0.20747858	-0.092366554	0.71223114	0.016818605	0.015919881	0.68116357	-0.19475096	0.11573203	0.6202525	-0.1362989	0.32996313	0.92738898	0.0060372901	0.33893164	0.99438068	0.16765945	0.34147501	0.99373694	-0.14592981	0.30906491	0.84563635	0.0095183001	0.3259776	0.90732495	-0.055237686	0.37847626	0.46250912	0.066032364	0.36504852	0.44490942	0.18377672	0.21067894	0.58817065	0.10145504	0.30570181	0.10548937	0.094639359	0.29076337	0.093286545	0.17610078	0.30972607	0.27050674	0.19496967	0.23144949	0.056089138	0.13807309	0.44895703	0.055475395	0.11746316
6308	63.07	0.11415516	0.61297296	0.15254805	0.014915836	0.66615222	0.20809647	-0.085625061	0.71569739	0.017232059	0.022337414	0.68338446	-0.19501938	0.12105485	0.622	-0.13615236	0.33878616	0.92569727	0.0055054455	0.34893521	0.99215424	0.16676573	0.35091565	0.99195648	-0.14639771	0.31700211	0.84393451	0.00862216	0.33538223	0.90577386	-0.055586098	0.38200836	0.46117426	0.065149139	0.36851657	0.44396289	0.18263417	0.21549449	0.58891229	0.10097842	0.30618469	0.10527342	0.094260643	0.29092398	0.093335152	0.17585876	0.31163513	0.27020367	0.19420638	0.23153989	0.05600502	0.13793709	0.44922803	0.055228813	0.11750623
6309	63.08	0.12071594	0.61435986	0.15203831	0.022594162	0.66882642	0.20867438	-0.079070328	0.71916931	0.017645451	0.028652775	0.68559625	-0.19527388	0.12643864	0.62393353	-0.13600566	0.34715628	0.92447412	0.0048888364	0.35839465	0.99033386	0.16587686	0.35974988	0.99073669	-0.14695461	0.32421854	0.84270917	0.0076331625	0.34435831	0.90471552	-0.056027081	0.38553766	0.45966568	0.064031311	0.37210098	0.4430451	0.18122147	0.22032359	0.58962506	0.10022275	0.30665665	0.10505561	0.093836113	0.29109598	0.093380341	0.17556506	0.31360318	0.2699693	0.19325963	0.23162323	0.055922382	0.13778957	0.44948517	0.054999779	0.11751615
6310	63.09	0.12697734	0.61594617	0.15160295	0.029844299	0.67164563	0.20919315	-0.072724365	0.72268463	0.018022013	0.034840031	0.68781708	-0.19552739	0.13183331	0.62600385	-0.13583936	0.35507669	0.92377692	0.0041967707	0.36729813	0.98897467	0.16502158	0.36796313	0.9901535	-0.14757951	0.33083997	0.84202527	0.0065745096	0.35284903	0.90419928	-0.056556934	0.38900159	0.45806723	0.062731155	0.37575363	0.4421619	0.17963043	0.22514366	0.59034357	0.099269348	0.30710849	0.10484623	0.093386208	0.2912666	0.093423027	0.17524594	0.31559799	0.26979959	0.19218155	0.23169888	0.055848518	0.13764095	0.44972339	0.054794373	0.11749652
6311	63.1	0.13289342	0.61773962	0.15127124	0.036583561	0.67464252	0.20963931	-0.066594742	0.726284	0.018319603	0.040874748	0.69008331	-0.19578502	0.1371787	0.62818756	-0.13563858	0.36255911	0.92365778	0.0034465113	0.3756488	0.9881377	0.16421869	0.37555847	0.99026227	-0.14825421	0.3369935	0.8419292	0.0054683261	0.3608125	0.90426849	-0.057164402	0.392375	0.45648459	0.061317364	0.37942197	0.44131339	0.17796779	0.22995772	0.59110828	0.09823011	0.30753217	0.10465467	0.092933754	0.29142465	0.09346904	0.17493353	0.31758527	0.26968301	0.1910416	0.23176854	0.055795013	0.13750996	0.44993811	0.054614552	0.11745401
6312	63.11	0.13845937	0.61976031	0.15106537	0.042778648	0.67784924	0.21000308	-0.060676838	0.73001233	0.01850563	0.046734222	0.6924469	-0.1960421	0.14241701	0.63048773	-0.13539754	0.36962018	0.92416107	0.0026614177	0.38346176	0.98788885	0.16347316	0.38255765	0.99109497	-0.14896327	0.3427825	0.84245483	0.0043387513	0.36822766	0.90495941	-0.057832668	0.39565909	0.45501215	0.059878994	0.38305093	0.44049701	0.17634268	0.23477812	0.59195715	0.097221703	0.30792184	0.10448868	0.092501114	0.29156787	0.093514267	0.17464793	0.31953192	0.26960492	0.18991861	0.23183391	0.055773357	0.1374167	0.4501257	0.054460152	0.11739708
6313	63.12	0.14369865	0.6220379	0.15099371	0.048445583	0.68129114	0.21027612	-0.054957523	0.73391931	0.018572083	0.052398956	0.69497064	-0.19628595	0.14749797	0.6329292	-0.13512032	0.37627896	0.92532098	0.0018654888	0.39075909	0.98829633	0.16277731	0.38899921	0.99265997	-0.14969283	0.3482796	0.84362811	0.0032120318	0.37509497	0.90630066	-0.058542042	0.39886594	0.45371014	0.05852319	0.38658478	0.43971045	0.17485617	0.23961295	0.59291968	0.096345932	0.30827411	0.10435405	0.092108475	0.2917012	0.093544586	0.17439319	0.3214079	0.26955008	0.18889113	0.23189406	0.055787479	0.13737122	0.45028271	0.054330692	0.11733476
6314	63.13	0.14864911	0.62460706	0.15104425	0.053644764	0.68498462	0.21045503	-0.049419605	0.73805646	0.018539553	0.057853287	0.69772217	-0.19649986	0.15238182	0.63555219	-0.13481883	0.38255615	0.92716132	0.0010788169	0.39756439	0.98942627	0.16211774	0.39493295	0.99494586	-0.1504303	0.35353079	0.84546704	0.0021156898	0.38143362	0.90831097	-0.059272503	0.40200644	0.4525986	0.057359398	0.38996924	0.43895319	0.17359322	0.244461	0.59401453	0.09567907	0.30858694	0.10425466	0.091772842	0.29182724	0.093551804	0.17417076	0.32318692	0.26950375	0.18802776	0.2319455	0.055829395	0.13736848	0.45040652	0.054226265	0.1172755
6315	63.14	0.15335451	0.62750458	0.15118178	0.058470947	0.68893787	0.21054495	-0.04404554	0.74247113	0.018449968	0.063084194	0.70076599	-0.1966683	0.15704132	0.63840613	-0.13451048	0.38847171	0.92969556	0.00031544983	0.40389926	0.99133813	0.16148386	0.4004137	0.99792731	-0.15116521	0.35856271	0.84798334	0.0010774581	0.38727933	0.91099762	-0.060006279	0.40508206	0.45166422	0.056476685	0.39315497	0.43822772	0.17261491	0.24931131	0.59525189	0.09526712	0.30885895	0.1041925	0.091507141	0.29194022	0.093542053	0.17398955	0.32484665	0.26945239	0.18737943	0.23198442	0.055880539	0.13739226	0.45049478	0.054147587	0.11722637
6316	63.15	0.15785941	0.63076544	0.15135292	0.063038231	0.69315546	0.21056371	-0.038820126	0.74720074	0.018353987	0.068080078	0.7041568	-0.19678001	0.16146266	0.64154535	-0.13421396	0.39404324	0.93292834	-0.00041799393	0.40978125	0.9940788	0.16087445	0.4054942	1.0015712	-0.15188989	0.36338812	0.85118298	0.0001228691	0.39267874	0.9143573	-0.060730614	0.40807672	0.45087299	0.055926418	0.39610068	0.43753961	0.17195161	0.25414479	0.59663562	0.095124397	0.30908777	0.10416718	0.091319275	0.29202985	0.093529457	0.17386264	0.32636862	0.26938593	0.18697382	0.23200806	0.055915035	0.13742033	0.45054611	0.054095318	0.1171928
6317	63.16	0.16220573	0.63441968	0.15149774	0.067463112	0.69764374	0.21054053	-0.03373217	0.75226764	0.018296906	0.072830833	0.70793597	-0.19682828	0.16564626	0.6450238	-0.13394547	0.39928506	0.9368576	-0.0011212405	0.41522403	0.99767657	0.16029779	0.41022009	1.0058433	-0.15260023	0.36801306	0.85506616	-0.00072810626	0.39767841	0.91837988	-0.061439861	0.41095459	0.45018549	0.055715508	0.39877426	0.43689743	0.17159998	0.25893707	0.59816571	0.09523558	0.30927094	0.10417585	0.091210938	0.29208734	0.093527718	0.1737998	0.32773981	0.26929956	0.18681241	0.23201514	0.055901894	0.1374277	0.45056036	0.054069115	0.11717804
6318	63.17	0.16642929	0.63848938	0.15156178	0.071849884	0.70240912	0.21050754	-0.028774778	0.75767786	0.018305264	0.077329903	0.71213037	-0.19681056	0.16960617	0.64889185	-0.13371973	0.40420944	0.94147601	-0.0017972465	0.42023938	1.002136	0.15976558	0.4146257	1.0107129	-0.1532961	0.37244345	0.85962671	-0.0014642172	0.40231668	0.92305225	-0.062135124	0.41366599	0.44956967	0.055809101	0.40115451	0.43631201	0.1715251	0.26366223	0.59983954	0.095561462	0.3094071	0.10421368	0.091177238	0.29210675	0.09354715	0.1738038	0.3289545	0.26919513	0.18687213	0.23200575	0.055806118	0.1373868	0.45053986	0.054066998	0.11718297
6319	63.18	0.17055659	0.64298444	0.15150461	0.076280014	0.7074577	0.21049109	-0.023943962	0.76342084	0.018377569	0.081577957	0.71675537	-0.19672923	0.17337094	0.65319495	-0.13355139	0.40882712	0.94677222	-0.0024501631	0.42483981	1.0074374	0.15928673	0.41873227	1.0161548	-0.15398181	0.37668906	0.86485223	-0.0020846939	0.40662265	0.92835974	-0.062821396	0.41615741	0.44900705	0.056139149	0.4032312	0.43579562	0.17166704	0.2682963	0.60165363	0.096046967	0.3094971	0.10427449	0.091207649	0.29208456	0.093594666	0.17386958	0.33001392	0.26907983	0.18711063	0.23198161	0.055590874	0.13726857	0.45048914	0.054084877	0.11720681
6320	63.19	0.17460504	0.64790265	0.15130373	0.080805992	0.71279669	0.21050647	-0.019235909	0.76947101	0.018482662	0.085586601	0.7218183	-0.19659189	0.17698457	0.65797467	-0.13345496	0.41314822	0.95273157	-0.0030839245	0.42904117	1.0135391	0.15886426	0.42254825	1.0221514	-0.15466556	0.38076355	0.87072583	-0.0025981121	0.41061801	0.93428802	-0.06350322	0.41838123	0.44849438	0.056616901	0.40500427	0.43535992	0.17194997	0.27282043	0.60360498	0.096629539	0.30954352	0.10435143	0.091287895	0.29201907	0.093674469	0.17398465	0.33092273	0.268965	0.18747408	0.23194601	0.055222748	0.13704601	0.45041446	0.054116573	0.11724824
6321	63.2	0.17858621	0.6532323	0.15095523	0.085449295	0.71843298	0.21055496	-0.014644528	0.77578821	0.018566067	0.089379204	0.72731897	-0.19641115	0.18050417	0.66326611	-0.13344415	0.41718265	0.95933777	-0.0037002642	0.43286371	1.0203853	0.15849551	0.4260719	1.0286914	-0.1553576	0.38468225	0.87722754	-0.0030189538	0.41432144	0.94082245	-0.064179787	0.42030276	0.44804395	0.057147972	0.40648221	0.43501434	0.172293	0.27722333	0.60569067	0.097246994	0.30955066	0.10443772	0.091402	0.29191129	0.093787811	0.17413034	0.33168652	0.26886459	0.18790501	0.23190324	0.054682365	0.13670224	0.45032291	0.054154667	0.11730645
6322	63.21	0.18250809	0.65895544	0.15047063	0.090201714	0.72437085	0.21062415	-0.010161667	0.78232117	0.018559866	0.09298835	0.73324725	-0.19620348	0.18399271	0.66909271	-0.13353052	0.42094165	0.96657306	-0.0042964478	0.43633099	1.0279117	0.1581734	0.4292959	1.035771	-0.15606619	0.38845901	0.88433478	-0.0033638587	0.41775229	0.947948	-0.064843964	0.42190549	0.4476821	0.05764719	0.40768088	0.43476517	0.17262062	0.28150104	0.60790741	0.097844696	0.30952399	0.10452752	0.091534042	0.29176828	0.093930763	0.1742825	0.33231158	0.26879407	0.18834903	0.23185725	0.053982971	0.13624472	0.45022192	0.054191753	0.11738189
6323	63.22	0.18637517	0.66505133	0.14987178	0.095030151	0.73060907	0.21069145	-0.0057797761	0.78901678	0.018395668	0.096451584	0.73958118	-0.19598645	0.18750768	0.67545685	-0.13372089	0.42443921	0.97441785	-0.0048650136	0.43946881	1.0360533	0.15788863	0.4322131	1.0433929	-0.15679182	0.39210699	0.89202374	-0.0036498675	0.42093216	0.95565051	-0.065485878	0.42319043	0.44744418	0.058050987	0.40862125	0.43461545	0.17287222	0.28565414	0.61024933	0.098380547	0.30946951	0.10461633	0.091669876	0.29160373	0.09409301	0.17441454	0.33280289	0.26876767	0.1887588	0.23181053	0.05317836	0.13571107	0.45011847	0.054221546	0.11747578
6324	63.23	0.19018895	0.6714989	0.14918596	0.099884666	0.73714056	0.2107301	-0.0014935503	0.79583356	0.018028606	0.099807533	0.74628394	-0.19577522	0.19108759	0.68233179	-0.13401202	0.42769302	0.98284998	-0.0053970795	0.44230334	1.0447485	0.15763177	0.43482504	1.0515698	-0.15751921	0.39564062	0.90027222	-0.0038951521	0.42388672	0.96391614	-0.066096146	0.42417261	0.44736777	0.058325966	0.40932718	0.43456638	0.17300769	0.28968423	0.61270685	0.098826805	0.30939276	0.10470137	0.091798553	0.29143329	0.094260559	0.174504	0.33316116	0.26879553	0.18909778	0.23176398	0.052339275	0.13515169	0.45001797	0.054240101	0.11758777
6325	63.24	0.19394812	0.67827899	0.14844196	0.1047081	0.743953	0.21071649	0.0027014923	0.80276068	0.017476942	0.10309238	0.75330621	-0.19558072	0.19473605	0.6896543	-0.13438249	0.43072223	0.99184357	-0.0058863788	0.44485959	1.0539437	0.15739398	0.43715048	1.0603301	-0.15820833	0.39907736	0.90906781	-0.0041195531	0.42664709	0.97272937	-0.06666671	0.42487683	0.44748938	0.058471371	0.40982056	0.43461737	0.17300748	0.29359637	0.6152666	0.099170021	0.30929758	0.10478155	0.091913147	0.2912713	0.094418877	0.17453926	0.33338251	0.26888242	0.18934352	0.2317179	0.051534428	0.1346161	0.44992319	0.054247227	0.11771233
